FA-18C_Hornet_IFEI.sfdir
StartChar: dollar
Encoding: 36 36 7
Width: 500
GlyphClass: 2
Flags: W
LayerCount: 2
Fore
SplineSet
380 400 m 1,0,-1
 420 360 l 1,1,-1
 380 320 l 1,2,-1
 120 320 l 1,3,-1
 80 360 l 1,4,-1
 120 400 l 1,5,-1
 380 400 l 1,0,-1
440 350 m 1,6,-1
 460 330 l 1,7,-1
 460 50 l 1,8,9
 450 10 450 10 410 0 c 1,10,-1
 380 80 l 1,11,-1
 380 290 l 1,12,-1
 440 350 l 1,6,-1
390 0 m 1,13,-1
 90 0 l 1,14,15
 50 10 50 10 40 50 c 1,16,-1
 120 80 l 1,17,-1
 360 80 l 1,18,-1
 390 0 l 1,13,-1
120 620 m 1,19,-1
 120 430 l 1,20,-1
 60 370 l 1,21,-1
 40 390 l 1,22,-1
 40 650 l 1,23,-1
 120 620 l 1,19,-1
121 640 m 1,24,-1
 41 670 l 1,25,26
 51 710 51 710 91 720 c 1,27,-1
 410 720 l 1,28,29
 450 710 450 710 460 670 c 1,30,-1
 380 640 l 1,31,-1
 121 640 l 1,24,-1
220 750 m 1,32,-1
 220 800 l 1,33,-1
 260 840 l 1,34,-1
 300 800 l 1,35,-1
 300 750 l 1,36,-1
 220 750 l 1,32,-1
220 430 m 1,37,-1
 220 610 l 1,38,-1
 300 610 l 1,39,-1
 300 430 l 1,40,-1
 220 430 l 1,37,-1
220 110 m 1,41,-1
 220 290 l 1,42,-1
 300 290 l 1,43,-1
 300 110 l 1,44,-1
 220 110 l 1,41,-1
300 -30 m 1,45,-1
 300 -80 l 1,46,-1
 260 -120 l 1,47,-1
 220 -80 l 1,48,-1
 220 -30 l 1,49,-1
 300 -30 l 1,45,-1
EndSplineSet
Validated: 1
EndChar
StartChar: percent
Encoding: 37 37 8
Width: 500
GlyphClass: 2
Flags: W
LayerCount: 2
Fore
SplineSet
261 478 m 1,0,-1
 380 720 l 1,1,2
 440 720 440 720 460 680 c 1,3,-1
 306 370 l 1,4,-1
 261 370 l 1,5,-1
 261 478 l 1,0,-1
239 242 m 1,6,-1
 120 0 l 1,7,8
 60 0 60 0 40 40 c 1,9,-1
 194 350 l 1,10,-1
 239 350 l 1,11,-1
 239 242 l 1,6,-1
140 640 m 1,12,-1
 80 640 l 1,13,-1
 0 670 l 1,14,15
 10 710 10 710 50 720 c 1,16,-1
 170 720 l 1,17,-1
 140 640 l 1,12,-1
80 620 m 1,18,-1
 80 560 l 1,19,-1
 50 480 l 1,20,21
 10 490 10 490 0 530 c 1,22,-1
 0 650 l 1,23,-1
 80 620 l 1,18,-1
100 560 m 1,24,-1
 160 560 l 1,25,-1
 240 530 l 1,26,27
 230 490 230 490 190 480 c 1,28,-1
 70 480 l 1,29,-1
 100 560 l 1,24,-1
160 580 m 1,30,-1
 160 640 l 1,31,-1
 190 720 l 1,32,33
 230 710 230 710 240 670 c 1,34,-1
 240 550 l 1,35,-1
 160 580 l 1,30,-1
420 100 m 1,36,-1
 420 160 l 1,37,-1
 450 240 l 1,38,39
 490 230 490 230 500 190 c 1,40,-1
 500 70 l 1,41,-1
 420 100 l 1,36,-1
400 160 m 1,42,-1
 340 160 l 1,43,-1
 260 190 l 1,44,45
 270 230 270 230 310 240 c 1,46,-1
 430 240 l 1,47,-1
 400 160 l 1,42,-1
340 140 m 1,48,-1
 340 80 l 1,49,-1
 310 0 l 1,50,51
 270 10 270 10 260 50 c 1,52,-1
 260 170 l 1,53,-1
 340 140 l 1,48,-1
360 80 m 1,54,-1
 420 80 l 1,55,-1
 500 50 l 1,56,57
 490 10 490 10 450 0 c 1,58,-1
 330 0 l 1,59,-1
 360 80 l 1,54,-1
EndSplineSet
Validated: 1
EndChar
StartChar: ampersand
Encoding: 38 38 9
Width: 500
GlyphClass: 2
Flags: W
LayerCount: 2
Fore
SplineSet
380 400 m 1,0,-1
 420 360 l 1,1,-1
 380 320 l 1,2,-1
 120 320 l 1,3,-1
 80 360 l 1,4,-1
 120 400 l 1,5,-1
 380 400 l 1,0,-1
440 350 m 1,6,-1
 460 330 l 1,7,-1
 460 100 l 1,8,-1
 410 100 l 1,9,-1
 380 130 l 1,10,-1
 380 290 l 1,11,-1
 440 350 l 1,6,-1
480 0 m 1,12,-1
 90 0 l 1,13,14
 50 10 50 10 40 50 c 1,15,-1
 120 80 l 1,16,-1
 440 80 l 1,17,-1
 500 20 l 1,18,-1
 480 0 l 1,12,-1
40 70 m 1,19,-1
 40 330 l 1,20,-1
 60 350 l 1,21,-1
 120 290 l 1,22,-1
 120 100 l 1,23,-1
 40 70 l 1,19,-1
320 600 m 1,24,-1
 160 600 l 1,25,-1
 80 630 l 1,26,27
 90 670 90 670 130 680 c 1,28,-1
 350 680 l 1,29,-1
 320 600 l 1,24,-1
160 580 m 1,30,-1
 160 470 l 1,31,-1
 100 410 l 1,32,-1
 80 430 l 1,33,-1
 80 610 l 1,34,-1
 160 580 l 1,30,-1
340 470 m 1,35,-1
 340 600 l 1,36,-1
 370 680 l 1,37,38
 410 670 410 670 420 630 c 1,39,-1
 420 430 l 1,40,-1
 400 410 l 1,41,-1
 340 470 l 1,35,-1
460 -20 m 1,42,-1
 460 -70 l 1,43,-1
 440 -90 l 1,44,-1
 380 -30 l 1,45,-1
 380 -20 l 1,46,-1
 460 -20 l 1,42,-1
EndSplineSet
Validated: 1
EndChar
StartChar: parenright
Encoding: 41 41 12
Width: 500
GlyphClass: 2
Flags: W
LayerCount: 2
Fore
SplineSet
230 80 m 1,0,-1
 340 80 l 1,1,-1
 380 40 l 1,2,-1
 340 0 l 1,3,-1
 230 0 l 1,4,-1
 190 40 l 1,5,-1
 230 80 l 1,0,-1
420 350 m 1,6,-1
 440 330 l 1,7,-1
 440 100 l 1,8,-1
 390 50 l 1,9,-1
 360 80 l 1,10,-1
 360 290 l 1,11,-1
 420 350 l 1,6,-1
190 680 m 1,12,-1
 230 720 l 1,13,-1
 340 720 l 1,14,-1
 380 680 l 1,15,-1
 340 640 l 1,16,-1
 230 640 l 1,17,-1
 190 680 l 1,12,-1
360 430 m 1,18,-1
 360 640 l 1,19,-1
 390 670 l 1,20,-1
 440 620 l 1,21,-1
 440 390 l 1,22,-1
 420 370 l 1,23,-1
 360 430 l 1,18,-1
EndSplineSet
Validated: 1
EndChar
StartChar: asterisk
Encoding: 42 42 13
Width: 500
GlyphClass: 2
Flags: W
LayerCount: 2
Fore
SplineSet
210 430 m 1,0,-1
 210 510 l 1,1,-1
 250 550 l 1,2,-1
 290 510 l 1,3,-1
 290 430 l 1,4,-1
 360 470 l 1,5,-1
 415 455 l 1,6,-1
 400 400 l 1,7,-1
 331 360 l 1,8,-1
 400 320 l 1,9,-1
 415 265 l 1,10,-1
 360 250 l 1,11,-1
 290 290 l 1,12,-1
 290 210 l 1,13,-1
 250 170 l 1,14,-1
 210 210 l 1,15,-1
 210 290 l 1,16,-1
 140 250 l 1,17,-1
 85 265 l 1,18,-1
 100 320 l 1,19,-1
 169 360 l 1,20,-1
 100 400 l 1,21,-1
 85 455 l 1,22,-1
 140 470 l 1,23,-1
 210 430 l 1,0,-1
EndSplineSet
Validated: 1
EndChar
StartChar: plus
Encoding: 43 43 14
Width: 500
GlyphClass: 2
Flags: W
LayerCount: 2
Fore
SplineSet
210 400 m 1,0,-1
 210 490 l 1,1,-1
 250 530 l 1,2,-1
 290 490 l 1,3,-1
 290 400 l 1,4,-1
 380 400 l 1,5,-1
 420 360 l 1,6,-1
 380 320 l 1,7,-1
 290 320 l 1,8,-1
 290 230 l 1,9,-1
 250 190 l 1,10,-1
 210 230 l 1,11,-1
 210 320 l 1,12,-1
 120 320 l 1,13,-1
 80 360 l 1,14,-1
 120 400 l 1,15,-1
 210 400 l 1,0,-1
EndSplineSet
Validated: 1
EndChar
StartChar: zero
Encoding: 48 48 19
Width: 500
GlyphClass: 2
Flags: W
LayerCount: 2
Fore
SplineSet
440 350 m 1,0,-1
 460 330 l 1,1,-1
 460 50 l 1,2,3
 450 10 450 10 410 0 c 1,4,-1
 380 80 l 1,5,-1
 380 290 l 1,6,-1
 440 350 l 1,0,-1
390 0 m 1,7,-1
 90 0 l 1,8,9
 50 10 50 10 40 50 c 1,10,-1
 120 80 l 1,11,-1
 360 80 l 1,12,-1
 390 0 l 1,7,-1
40 70 m 1,13,-1
 40 330 l 1,14,-1
 60 350 l 1,15,-1
 120 290 l 1,16,-1
 120 100 l 1,17,-1
 40 70 l 1,13,-1
360 640 m 1,18,-1
 121 640 l 1,19,-1
 41 670 l 1,20,21
 51 710 51 710 91 720 c 1,22,-1
 390 720 l 1,23,-1
 360 640 l 1,18,-1
120 620 m 1,24,-1
 120 430 l 1,25,-1
 60 370 l 1,26,-1
 40 390 l 1,27,-1
 40 650 l 1,28,-1
 120 620 l 1,24,-1
380 430 m 1,29,-1
 380 640 l 1,30,-1
 410 720 l 1,31,32
 450 710 450 710 460 670 c 1,33,-1
 460 390 l 1,34,-1
 440 370 l 1,35,-1
 380 430 l 1,29,-1
EndSplineSet
Validated: 1
EndChar
StartChar: four
Encoding: 52 52 23
Width: 500
GlyphClass: 2
Flags: W
LayerCount: 2
Fore
SplineSet
380 400 m 1,0,-1
 420 360 l 1,1,-1
 380 320 l 1,2,-1
 120 320 l 1,3,-1
 80 360 l 1,4,-1
 120 400 l 1,5,-1
 380 400 l 1,0,-1
440 350 m 1,6,-1
 460 330 l 1,7,-1
 460 50 l 1,8,9
 450 10 450 10 410 0 c 1,10,-1
 380 80 l 1,11,-1
 380 290 l 1,12,-1
 440 350 l 1,6,-1
120 650 m 1,13,-1
 120 430 l 1,14,-1
 60 370 l 1,15,-1
 40 390 l 1,16,-1
 40 680 l 1,17,-1
 120 650 l 1,13,-1
380 430 m 1,18,-1
 380 640 l 1,19,-1
 410 720 l 1,20,21
 450 710 450 710 460 670 c 1,22,-1
 460 390 l 1,23,-1
 440 370 l 1,24,-1
 380 430 l 1,18,-1
EndSplineSet
Validated: 1
EndChar
StartChar: eight
Encoding: 56 56 27
Width: 500
GlyphClass: 2
Flags: W
LayerCount: 2
Fore
SplineSet
380 400 m 1,0,-1
 420 360 l 1,1,-1
 380 320 l 1,2,-1
 120 320 l 1,3,-1
 80 360 l 1,4,-1
 120 400 l 1,5,-1
 380 400 l 1,0,-1
440 350 m 1,6,-1
 460 330 l 1,7,-1
 460 50 l 1,8,9
 450 10 450 10 410 0 c 1,10,-1
 380 80 l 1,11,-1
 380 290 l 1,12,-1
 440 350 l 1,6,-1
390 0 m 1,13,-1
 90 0 l 1,14,15
 50 10 50 10 40 50 c 1,16,-1
 120 80 l 1,17,-1
 360 80 l 1,18,-1
 390 0 l 1,13,-1
40 70 m 1,19,-1
 40 330 l 1,20,-1
 60 350 l 1,21,-1
 120 290 l 1,22,-1
 120 100 l 1,23,-1
 40 70 l 1,19,-1
360 640 m 1,24,-1
 121 640 l 1,25,-1
 41 670 l 1,26,27
 51 710 51 710 91 720 c 1,28,-1
 390 720 l 1,29,-1
 360 640 l 1,24,-1
120 620 m 1,30,-1
 120 430 l 1,31,-1
 60 370 l 1,32,-1
 40 390 l 1,33,-1
 40 650 l 1,34,-1
 120 620 l 1,30,-1
380 430 m 1,35,-1
 380 640 l 1,36,-1
 410 720 l 1,37,38
 450 710 450 710 460 670 c 1,39,-1
 460 390 l 1,40,-1
 440 370 l 1,41,-1
 380 430 l 1,35,-1
EndSplineSet
Validated: 1
EndChar
StartChar: colon
Encoding: 58 58 29
Width: 500
GlyphClass: 2
Flags: W
LayerCount: 2
Fore
SplineSet
290 160 m 1,0,-1
 210 160 l 1,1,-1
 210 240 l 1,2,-1
 290 240 l 1,3,-1
 290 160 l 1,0,-1
290 480 m 1,4,-1
 210 480 l 1,5,-1
 210 560 l 1,6,-1
 290 560 l 1,7,-1
 290 480 l 1,4,-1
EndSplineSet
Validated: 1
EndChar
StartChar: semicolon
Encoding: 59 59 30
Width: 500
GlyphClass: 2
Flags: W
LayerCount: 2
Fore
SplineSet
290 480 m 1,0,-1
 210 480 l 1,1,-1
 210 560 l 1,2,-1
 290 560 l 1,3,-1
 290 480 l 1,0,-1
290 -80 m 1,4,-1
 250 -120 l 1,5,-1
 210 -80 l 1,6,-1
 210 80 l 1,7,-1
 290 80 l 1,8,-1
 290 -80 l 1,4,-1
EndSplineSet
Validated: 1
EndChar
StartChar: less
Encoding: 60 60 31
Width: 500
GlyphClass: 2
Flags: W
LayerCount: 2
Fore
SplineSet
210 370 m 1,0,-1
 100 370 l 1,1,-1
 300 570 l 1,2,-1
 340 570 l 1,3,-1
 370 531 l 1,4,-1
 210 370 l 1,0,-1
370 189 m 1,5,-1
 340 150 l 1,6,-1
 300 150 l 1,7,-1
 100 350 l 1,8,-1
 210 350 l 1,9,-1
 370 189 l 1,5,-1
EndSplineSet
Validated: 1
EndChar
StartChar: equal
Encoding: 61 61 32
Width: 500
GlyphClass: 2
Flags: W
LayerCount: 2
Fore
SplineSet
380 480 m 1,0,-1
 420 440 l 1,1,-1
 380 400 l 1,2,-1
 120 400 l 1,3,-1
 80 440 l 1,4,-1
 120 480 l 1,5,-1
 380 480 l 1,0,-1
380 319 m 1,6,-1
 420 279 l 1,7,-1
 380 239 l 1,8,-1
 120 239 l 1,9,-1
 80 279 l 1,10,-1
 120 319 l 1,11,-1
 380 319 l 1,6,-1
EndSplineSet
Validated: 1
EndChar
StartChar: E
Encoding: 69 69 40
Width: 500
GlyphClass: 2
Flags: W
LayerCount: 2
Fore
SplineSet
380 400 m 1,0,-1
 420 360 l 1,1,-1
 380 320 l 1,2,-1
 120 320 l 1,3,-1
 80 360 l 1,4,-1
 120 400 l 1,5,-1
 380 400 l 1,0,-1
420 0 m 1,6,-1
 90 0 l 1,7,8
 50 10 50 10 40 50 c 1,9,-1
 120 80 l 1,10,-1
 390 80 l 1,11,-1
 420 0 l 1,6,-1
40 70 m 1,12,-1
 40 330 l 1,13,-1
 60 350 l 1,14,-1
 120 290 l 1,15,-1
 120 100 l 1,16,-1
 40 70 l 1,12,-1
390 640 m 1,17,-1
 121 640 l 1,18,-1
 41 670 l 1,19,20
 51 710 51 710 91 720 c 1,21,-1
 420 720 l 1,22,-1
 390 640 l 1,17,-1
120 620 m 1,23,-1
 120 430 l 1,24,-1
 60 370 l 1,25,-1
 40 390 l 1,26,-1
 40 650 l 1,27,-1
 120 620 l 1,23,-1
EndSplineSet
Validated: 1
EndChar
StartChar: M
Encoding: 77 77 48
Width: 500
GlyphClass: 2
Flags: W
LayerCount: 2
Fore
SplineSet
290 390 m 1,0,-1
 250 350 l 1,1,-1
 210 390 l 1,2,-1
 210 620 l 1,3,-1
 290 620 l 1,4,-1
 290 390 l 1,0,-1
440 350 m 1,5,-1
 460 330 l 1,6,-1
 460 50 l 1,7,8
 450 10 450 10 410 0 c 1,9,-1
 380 80 l 1,10,-1
 380 290 l 1,11,-1
 440 350 l 1,5,-1
360 640 m 1,12,-1
 121 640 l 1,13,-1
 41 670 l 1,14,15
 51 710 51 710 91 720 c 1,16,-1
 390 720 l 1,17,-1
 360 640 l 1,12,-1
120 620 m 1,18,-1
 120 430 l 1,19,-1
 60 370 l 1,20,-1
 40 390 l 1,21,-1
 40 650 l 1,22,-1
 120 620 l 1,18,-1
380 430 m 1,23,-1
 380 640 l 1,24,-1
 410 720 l 1,25,26
 450 710 450 710 460 670 c 1,27,-1
 460 390 l 1,28,-1
 440 370 l 1,29,-1
 380 430 l 1,23,-1
120 290 m 1,30,-1
 120 80 l 1,31,-1
 90 0 l 1,32,33
 50 10 50 10 40 50 c 1,34,-1
 40 330 l 1,35,-1
 60 350 l 1,36,-1
 120 290 l 1,30,-1
EndSplineSet
Validated: 1
EndChar
StartChar: T
Encoding: 84 84 55
Width: 500
GlyphClass: 2
Flags: W
LayerCount: 2
Fore
SplineSet
250 350 m 1,0,-1
 290 310 l 1,1,-1
 290 50 l 1,2,3
 280 10 280 10 240 0 c 1,4,-1
 210 80 l 1,5,-1
 210 310 l 1,6,-1
 250 350 l 1,0,-1
210 410 m 1,7,-1
 210 620 l 1,8,-1
 290 620 l 1,9,-1
 290 410 l 1,10,-1
 250 370 l 1,11,-1
 210 410 l 1,7,-1
121 640 m 1,12,-1
 41 670 l 1,13,14
 51 710 51 710 91 720 c 1,15,-1
 410 720 l 1,16,17
 450 710 450 710 460 670 c 1,18,-1
 380 640 l 1,19,-1
 121 640 l 1,12,-1
EndSplineSet
Validated: 1
EndChar
StartChar: V
Encoding: 86 86 57
Width: 500
GlyphClass: 2
Flags: W
LayerCount: 2
Fore
SplineSet
60 360 m 1,0,-1
 40 380 l 1,1,-1
 40 660 l 1,2,3
 50 700 50 700 90 710 c 1,4,-1
 120 630 l 1,5,-1
 120 420 l 1,6,-1
 60 360 l 1,0,-1
380 420 m 1,7,-1
 380 630 l 1,8,-1
 410 710 l 1,9,10
 450 700 450 700 460 660 c 1,11,-1
 460 380 l 1,12,-1
 440 360 l 1,13,-1
 380 420 l 1,7,-1
240 120 m 1,14,-1
 240 0 l 1,15,-1
 40 260 l 1,16,-1
 40 320 l 1,17,-1
 60 340 l 1,18,-1
 120 280 l 1,19,-1
 240 120 l 1,14,-1
380 280 m 1,20,-1
 440 340 l 1,21,-1
 460 320 l 1,22,-1
 460 260 l 1,23,-1
 260 0 l 1,24,-1
 260 120 l 1,25,-1
 380 280 l 1,20,-1
EndSplineSet
Validated: 1
EndChar
StartChar: backslash
Encoding: 92 92 63
Width: 500
GlyphClass: 2
Flags: W
LayerCount: 2
Fore
SplineSet
260 350 m 1,0,-1
 305 350 l 1,1,-1
 459 40 l 1,2,3
 439 0 439 0 379 0 c 1,4,-1
 260 242 l 1,5,-1
 260 350 l 1,0,-1
240 370 m 1,6,-1
 195 370 l 1,7,-1
 41 680 l 1,8,9
 61 720 61 720 121 720 c 1,10,-1
 240 477 l 1,11,-1
 240 370 l 1,6,-1
EndSplineSet
Validated: 1
EndChar
StartChar: asciicircum
Encoding: 94 94 65
Width: 500
GlyphClass: 2
Flags: W
LayerCount: 2
Fore
SplineSet
259 610 m 1,0,-1
 259 720 l 1,1,-1
 459 520 l 1,2,-1
 459 480 l 1,3,-1
 420 450 l 1,4,-1
 259 610 l 1,0,-1
79 450 m 1,5,-1
 40 480 l 1,6,-1
 40 520 l 1,7,-1
 240 720 l 1,8,-1
 239 610 l 1,9,-1
 79 450 l 1,5,-1
EndSplineSet
Validated: 1
EndChar
StartChar: p
Encoding: 112 112 83
Width: 500
GlyphClass: 2
Flags: W
LayerCount: 2
Fore
SplineSet
380 400 m 1,0,-1
 420 360 l 1,1,-1
 380 320 l 1,2,-1
 120 320 l 1,3,-1
 80 360 l 1,4,-1
 120 400 l 1,5,-1
 380 400 l 1,0,-1
360 640 m 1,6,-1
 120 640 l 1,7,-1
 40 670 l 1,8,-1
 40 720 l 1,9,-1
 360 720 l 1,10,-1
 400 680 l 1,11,-1
 360 640 l 1,6,-1
120 620 m 1,12,-1
 120 430 l 1,13,-1
 60 370 l 1,14,-1
 40 390 l 1,15,-1
 40 650 l 1,16,-1
 120 620 l 1,12,-1
380 430 m 1,17,-1
 380 640 l 1,18,-1
 410 670 l 1,19,-1
 460 620 l 1,20,-1
 460 390 l 1,21,-1
 440 370 l 1,22,-1
 380 430 l 1,17,-1
120 290 m 1,23,-1
 120 80 l 1,24,-1
 90 0 l 1,25,26
 50 10 50 10 40 50 c 1,27,-1
 40 330 l 1,28,-1
 60 350 l 1,29,-1
 120 290 l 1,23,-1
EndSplineSet
Validated: 1
EndChar
StartChar: quoteright
Encoding: 8217 8217 102
Width: 500
GlyphClass: 2
Flags: W
LayerCount: 2
Fore
SplineSet
300 560 m 1,0,-1
 260 520 l 1,1,-1
 220 560 l 1,2,-1
 220 720 l 1,3,-1
 300 720 l 1,4,-1
 300 560 l 1,0,-1
EndSplineSet
Validated: 1
EndChar
